<svg width="32" height="31" viewBox="0 0 32 31" fill="none" xmlns="http://www.w3.org/2000/svg">
<path d="M30 20.6875C30.3481 20.6875 30.6819 20.8258 30.9281 21.0719C31.1742 21.3181 31.3125 21.6519 31.3125 22V23.75C31.3125 25.4905 30.6211 27.1597 29.3904 28.3904C28.1597 29.6211 26.4905 30.3125 24.75 30.3125H7.25C5.50952 30.3125 3.84032 29.6211 2.60961 28.3904C1.3789 27.1597 0.6875 25.4905 0.6875 23.75V22.007C0.6875 21.6589 0.825781 21.3251 1.07192 21.0789C1.31806 20.8328 1.6519 20.6945 2 20.6945C2.3481 20.6945 2.68194 20.8328 2.92808 21.0789C3.17422 21.3251 3.3125 21.6589 3.3125 22.007V23.75C3.3125 24.7943 3.72734 25.7958 4.46577 26.5342C5.20419 27.2727 6.20571 27.6875 7.25 27.6875H24.75C25.7943 27.6875 26.7958 27.2727 27.5342 26.5342C28.2727 25.7958 28.6875 24.7943 28.6875 23.75V22C28.6875 21.6519 28.8258 21.3181 29.0719 21.0719C29.3181 20.8258 29.6519 20.6875 30 20.6875Z" fill="white"/>
<path d="M17.3123 1.875C17.3123 1.5269 17.174 1.19306 16.9279 0.946922C16.6818 0.700781 16.3479 0.5625 15.9998 0.5625C15.6517 0.5625 15.3179 0.700781 15.0717 0.946922C14.8256 1.19306 14.6873 1.5269 14.6873 1.875V14.0725H8.94732C8.70153 14.3186 8.56348 14.6522 8.56348 15C8.56348 15.3478 8.70153 15.6814 8.94732 15.9275L15.0723 22.0525C15.3184 22.2983 15.652 22.4363 15.9998 22.4363C16.3476 22.4363 16.6812 22.2983 16.9273 22.0525L23.0523 15.9275C23.2981 15.6814 23.4362 15.3478 23.4362 15C23.4362 14.6522 23.2981 14.3186 23.0523 14.0725H17.3123V1.875Z" fill="white"/>
</svg>
