<svg width="30" height="30" viewBox="0 0 30 30" fill="none" xmlns="http://www.w3.org/2000/svg">
<path d="M22.9043 17.4902C22.9043 17.4902 22.9043 17.4961 22.9102 17.4961C23.4492 18.6328 23.7539 19.9043 23.7539 21.2461C23.748 26.0801 19.834 30 15 30C10.166 30 6.25195 26.0801 6.25195 21.252C6.25195 19.9102 6.55664 18.6387 7.0957 17.502C7.19531 17.291 7.30664 17.0801 7.42383 16.875C7.68164 16.4297 7.97461 16.0137 8.30273 15.627C9.9082 13.7168 12.3164 12.5039 15.0059 12.5039C16.9746 12.5039 18.791 13.1543 20.2559 14.2559C20.7891 14.6602 21.2754 15.1172 21.709 15.6328C22.0371 16.0195 22.3301 16.4414 22.5879 16.8809C22.7051 17.0801 22.8105 17.291 22.9102 17.4961L22.9043 17.4902ZM24.4512 16.3887C22.6875 12.9668 19.1191 10.623 15 10.623C10.8809 10.623 7.3125 12.9668 5.54883 16.3887L0 11.877L15 0L30 11.877L24.4512 16.3945V16.3887Z" fill="#999999"/>
</svg>
